<mxfile host="Electron" modified="2024-01-12T12:39:13.945Z" agent="Mozilla/5.0 (Windows NT 10.0; Win64; x64) AppleWebKit/537.36 (KHTML, like Gecko) draw.io/22.1.11 Chrome/114.0.5735.289 Electron/25.9.8 Safari/537.36" etag="LJ0F1s4StNywAcv5WPkj" version="22.1.11" type="device">
  <diagram name="第 1 页" id="9ukaL2rQqfUy5kqxhCr-">
    <mxGraphModel dx="1418" dy="828" grid="1" gridSize="10" guides="1" tooltips="1" connect="1" arrows="1" fold="1" page="1" pageScale="1" pageWidth="827" pageHeight="1169" math="0" shadow="0">
      <root>
        <mxCell id="0" />
        <mxCell id="1" parent="0" />
        <mxCell id="mhSWCcBsc90nhvL-JbBI-1" value="Context" style="swimlane;fontStyle=1;align=center;verticalAlign=top;childLayout=stackLayout;horizontal=1;startSize=26;horizontalStack=0;resizeParent=1;resizeParentMax=0;resizeLast=0;collapsible=1;marginBottom=0;whiteSpace=wrap;html=1;" vertex="1" parent="1">
          <mxGeometry x="40" y="265" width="160" height="90" as="geometry" />
        </mxCell>
        <mxCell id="mhSWCcBsc90nhvL-JbBI-24" value="-state" style="text;html=1;strokeColor=none;fillColor=none;align=left;verticalAlign=middle;whiteSpace=wrap;rounded=0;spacingLeft=4;spacingRight=4;" vertex="1" parent="mhSWCcBsc90nhvL-JbBI-1">
          <mxGeometry y="26" width="160" height="30" as="geometry" />
        </mxCell>
        <mxCell id="mhSWCcBsc90nhvL-JbBI-3" value="" style="line;strokeWidth=1;fillColor=none;align=left;verticalAlign=middle;spacingTop=-1;spacingLeft=3;spacingRight=3;rotatable=0;labelPosition=right;points=[];portConstraint=eastwest;strokeColor=inherit;" vertex="1" parent="mhSWCcBsc90nhvL-JbBI-1">
          <mxGeometry y="56" width="160" height="8" as="geometry" />
        </mxCell>
        <mxCell id="mhSWCcBsc90nhvL-JbBI-4" value="+Request()" style="text;strokeColor=none;fillColor=none;align=left;verticalAlign=top;spacingLeft=4;spacingRight=4;overflow=hidden;rotatable=0;points=[[0,0.5],[1,0.5]];portConstraint=eastwest;whiteSpace=wrap;html=1;" vertex="1" parent="mhSWCcBsc90nhvL-JbBI-1">
          <mxGeometry y="64" width="160" height="26" as="geometry" />
        </mxCell>
        <mxCell id="mhSWCcBsc90nhvL-JbBI-26" style="edgeStyle=none;rounded=0;orthogonalLoop=1;jettySize=auto;html=1;dashed=1;endArrow=none;endFill=0;" edge="1" parent="1" source="mhSWCcBsc90nhvL-JbBI-5" target="mhSWCcBsc90nhvL-JbBI-1">
          <mxGeometry relative="1" as="geometry" />
        </mxCell>
        <mxCell id="mhSWCcBsc90nhvL-JbBI-5" value="function Request(){&lt;br&gt;&amp;nbsp; &amp;nbsp; state.Handle();&lt;br&gt;}" style="shape=note;whiteSpace=wrap;html=1;backgroundOutline=1;darkOpacity=0.05;align=left;spacingLeft=4;spacingRight=4;" vertex="1" parent="1">
          <mxGeometry y="410" width="150" height="100" as="geometry" />
        </mxCell>
        <mxCell id="mhSWCcBsc90nhvL-JbBI-22" style="edgeStyle=none;rounded=0;orthogonalLoop=1;jettySize=auto;html=1;endArrow=diamondThin;endFill=0;" edge="1" parent="1" source="mhSWCcBsc90nhvL-JbBI-6" target="mhSWCcBsc90nhvL-JbBI-1">
          <mxGeometry relative="1" as="geometry" />
        </mxCell>
        <mxCell id="mhSWCcBsc90nhvL-JbBI-6" value="State" style="swimlane;fontStyle=1;align=center;verticalAlign=top;childLayout=stackLayout;horizontal=1;startSize=26;horizontalStack=0;resizeParent=1;resizeParentMax=0;resizeLast=0;collapsible=1;marginBottom=0;whiteSpace=wrap;html=1;" vertex="1" parent="1">
          <mxGeometry x="400" y="265" width="160" height="90" as="geometry" />
        </mxCell>
        <mxCell id="mhSWCcBsc90nhvL-JbBI-27" value="#context" style="text;html=1;strokeColor=none;fillColor=none;align=left;verticalAlign=middle;whiteSpace=wrap;rounded=0;spacingLeft=4;spacingRight=4;" vertex="1" parent="mhSWCcBsc90nhvL-JbBI-6">
          <mxGeometry y="26" width="160" height="30" as="geometry" />
        </mxCell>
        <mxCell id="mhSWCcBsc90nhvL-JbBI-8" value="" style="line;strokeWidth=1;fillColor=none;align=left;verticalAlign=middle;spacingTop=-1;spacingLeft=3;spacingRight=3;rotatable=0;labelPosition=right;points=[];portConstraint=eastwest;strokeColor=inherit;" vertex="1" parent="mhSWCcBsc90nhvL-JbBI-6">
          <mxGeometry y="56" width="160" height="8" as="geometry" />
        </mxCell>
        <mxCell id="mhSWCcBsc90nhvL-JbBI-9" value="+Handle()" style="text;strokeColor=none;fillColor=none;align=left;verticalAlign=top;spacingLeft=4;spacingRight=4;overflow=hidden;rotatable=0;points=[[0,0.5],[1,0.5]];portConstraint=eastwest;whiteSpace=wrap;html=1;" vertex="1" parent="mhSWCcBsc90nhvL-JbBI-6">
          <mxGeometry y="64" width="160" height="26" as="geometry" />
        </mxCell>
        <mxCell id="mhSWCcBsc90nhvL-JbBI-20" style="edgeStyle=none;rounded=0;orthogonalLoop=1;jettySize=auto;html=1;endArrow=block;endFill=0;" edge="1" parent="1" source="mhSWCcBsc90nhvL-JbBI-10" target="mhSWCcBsc90nhvL-JbBI-6">
          <mxGeometry relative="1" as="geometry" />
        </mxCell>
        <mxCell id="mhSWCcBsc90nhvL-JbBI-10" value="ConcreteStateB" style="swimlane;fontStyle=1;align=center;verticalAlign=top;childLayout=stackLayout;horizontal=1;startSize=26;horizontalStack=0;resizeParent=1;resizeParentMax=0;resizeLast=0;collapsible=1;marginBottom=0;whiteSpace=wrap;html=1;" vertex="1" parent="1">
          <mxGeometry x="400" y="440" width="160" height="60" as="geometry" />
        </mxCell>
        <mxCell id="mhSWCcBsc90nhvL-JbBI-11" value="" style="line;strokeWidth=1;fillColor=none;align=left;verticalAlign=middle;spacingTop=-1;spacingLeft=3;spacingRight=3;rotatable=0;labelPosition=right;points=[];portConstraint=eastwest;strokeColor=inherit;" vertex="1" parent="mhSWCcBsc90nhvL-JbBI-10">
          <mxGeometry y="26" width="160" height="8" as="geometry" />
        </mxCell>
        <mxCell id="mhSWCcBsc90nhvL-JbBI-12" value="+Handle()" style="text;strokeColor=none;fillColor=none;align=left;verticalAlign=top;spacingLeft=4;spacingRight=4;overflow=hidden;rotatable=0;points=[[0,0.5],[1,0.5]];portConstraint=eastwest;whiteSpace=wrap;html=1;" vertex="1" parent="mhSWCcBsc90nhvL-JbBI-10">
          <mxGeometry y="34" width="160" height="26" as="geometry" />
        </mxCell>
        <mxCell id="mhSWCcBsc90nhvL-JbBI-21" style="edgeStyle=none;rounded=0;orthogonalLoop=1;jettySize=auto;html=1;endArrow=block;endFill=0;" edge="1" parent="1" source="mhSWCcBsc90nhvL-JbBI-13" target="mhSWCcBsc90nhvL-JbBI-6">
          <mxGeometry relative="1" as="geometry" />
        </mxCell>
        <mxCell id="mhSWCcBsc90nhvL-JbBI-13" value="ConcreteStateC" style="swimlane;fontStyle=1;align=center;verticalAlign=top;childLayout=stackLayout;horizontal=1;startSize=26;horizontalStack=0;resizeParent=1;resizeParentMax=0;resizeLast=0;collapsible=1;marginBottom=0;whiteSpace=wrap;html=1;" vertex="1" parent="1">
          <mxGeometry x="600" y="440" width="160" height="60" as="geometry" />
        </mxCell>
        <mxCell id="mhSWCcBsc90nhvL-JbBI-14" value="" style="line;strokeWidth=1;fillColor=none;align=left;verticalAlign=middle;spacingTop=-1;spacingLeft=3;spacingRight=3;rotatable=0;labelPosition=right;points=[];portConstraint=eastwest;strokeColor=inherit;" vertex="1" parent="mhSWCcBsc90nhvL-JbBI-13">
          <mxGeometry y="26" width="160" height="8" as="geometry" />
        </mxCell>
        <mxCell id="mhSWCcBsc90nhvL-JbBI-15" value="+Handle()" style="text;strokeColor=none;fillColor=none;align=left;verticalAlign=top;spacingLeft=4;spacingRight=4;overflow=hidden;rotatable=0;points=[[0,0.5],[1,0.5]];portConstraint=eastwest;whiteSpace=wrap;html=1;" vertex="1" parent="mhSWCcBsc90nhvL-JbBI-13">
          <mxGeometry y="34" width="160" height="26" as="geometry" />
        </mxCell>
        <mxCell id="mhSWCcBsc90nhvL-JbBI-19" style="edgeStyle=none;rounded=0;orthogonalLoop=1;jettySize=auto;html=1;endArrow=block;endFill=0;" edge="1" parent="1" source="mhSWCcBsc90nhvL-JbBI-16" target="mhSWCcBsc90nhvL-JbBI-6">
          <mxGeometry relative="1" as="geometry" />
        </mxCell>
        <mxCell id="mhSWCcBsc90nhvL-JbBI-16" value="ConcreteStateA" style="swimlane;fontStyle=1;align=center;verticalAlign=top;childLayout=stackLayout;horizontal=1;startSize=26;horizontalStack=0;resizeParent=1;resizeParentMax=0;resizeLast=0;collapsible=1;marginBottom=0;whiteSpace=wrap;html=1;" vertex="1" parent="1">
          <mxGeometry x="200" y="440" width="160" height="60" as="geometry" />
        </mxCell>
        <mxCell id="mhSWCcBsc90nhvL-JbBI-17" value="" style="line;strokeWidth=1;fillColor=none;align=left;verticalAlign=middle;spacingTop=-1;spacingLeft=3;spacingRight=3;rotatable=0;labelPosition=right;points=[];portConstraint=eastwest;strokeColor=inherit;" vertex="1" parent="mhSWCcBsc90nhvL-JbBI-16">
          <mxGeometry y="26" width="160" height="8" as="geometry" />
        </mxCell>
        <mxCell id="mhSWCcBsc90nhvL-JbBI-18" value="+Handle()" style="text;strokeColor=none;fillColor=none;align=left;verticalAlign=top;spacingLeft=4;spacingRight=4;overflow=hidden;rotatable=0;points=[[0,0.5],[1,0.5]];portConstraint=eastwest;whiteSpace=wrap;html=1;" vertex="1" parent="mhSWCcBsc90nhvL-JbBI-16">
          <mxGeometry y="34" width="160" height="26" as="geometry" />
        </mxCell>
      </root>
    </mxGraphModel>
  </diagram>
</mxfile>
